{
	"asset":{
		"generator":"Khronos glTF Blender I/O v4.3.47",
		"version":"2.0"
	},
	"scene":0,
	"scenes":[
		{
			"extras":{
				"geocables_message":"\\\\nCustom Link:",
				"geocables_link":""
			},
			"name":"Scene",
			"nodes":[
				0,
				1,
				2
			]
		}
	],
	"nodes":[
		{
			"mesh":0,
			"name":"Crate_1",
			"translation":[
				0.8219829797744751,
				0.4285854697227478,
				1.024999976158142
			]
		},
		{
			"mesh":1,
			"name":"Crate_2",
			"rotation":[
				0.5,
				0.5,
				-0.5,
				0.4999999701976776
			],
			"translation":[
				0.0261877179145813,
				0.016686290502548218,
				-0.00549161434173584
			]
		},
		{
			"mesh":2,
			"name":"Crate_3",
			"rotation":[
				0.5000001192092896,
				-0.49999985098838806,
				0.49999988079071045,
				0.5000001192092896
			],
			"translation":[
				0,
				0.016686290502548218,
				0
			]
		}
	],
	"materials":[
		{
			"doubleSided":true,
			"name":"Crate_1"
		},
		{
			"doubleSided":true,
			"name":"Crate_2"
		},
		{
			"doubleSided":true,
			"name":"Crate_3"
		}
	],
	"meshes":[
		{
			"name":"Cube.047",
			"primitives":[
				{
					"attributes":{
						"POSITION":0,
						"NORMAL":1,
						"TEXCOORD_0":2,
						"TANGENT":3
					},
					"indices":4,
					"material":0
				}
			]
		},
		{
			"name":"Cube.004",
			"primitives":[
				{
					"attributes":{
						"POSITION":5,
						"NORMAL":6,
						"TEXCOORD_0":7,
						"TANGENT":8
					},
					"indices":9,
					"material":1
				}
			]
		},
		{
			"name":"Cube.006",
			"primitives":[
				{
					"attributes":{
						"POSITION":10,
						"NORMAL":11,
						"TEXCOORD_0":12,
						"TANGENT":13
					},
					"indices":14,
					"material":2
				}
			]
		}
	],
	"accessors":[
		{
			"bufferView":0,
			"componentType":5126,
			"count":2424,
			"max":[
				0.24454092979431152,
				0.6571148037910461,
				0.0415240153670311
			],
			"min":[
				-1.8885068893432617,
				-1.522017478942871,
				-2.109898328781128
			],
			"type":"VEC3"
		},
		{
			"bufferView":1,
			"componentType":5126,
			"count":2424,
			"type":"VEC3"
		},
		{
			"bufferView":2,
			"componentType":5126,
			"count":2424,
			"type":"VEC2"
		},
		{
			"bufferView":3,
			"componentType":5126,
			"count":2424,
			"type":"VEC4"
		},
		{
			"bufferView":4,
			"componentType":5123,
			"count":3336,
			"type":"SCALAR"
		},
		{
			"bufferView":5,
			"componentType":5126,
			"count":2808,
			"max":[
				1.079406499862671,
				1.0403361320495605,
				1.1101183891296387
			],
			"min":[
				-1.0720155239105225,
				-1.0927115678787231,
				-1.069014072418213
			],
			"type":"VEC3"
		},
		{
			"bufferView":6,
			"componentType":5126,
			"count":2808,
			"type":"VEC3"
		},
		{
			"bufferView":7,
			"componentType":5126,
			"count":2808,
			"type":"VEC2"
		},
		{
			"bufferView":8,
			"componentType":5126,
			"count":2808,
			"type":"VEC4"
		},
		{
			"bufferView":9,
			"componentType":5123,
			"count":3864,
			"type":"SCALAR"
		},
		{
			"bufferView":10,
			"componentType":5126,
			"count":2808,
			"max":[
				1.0794076919555664,
				1.0403361320495605,
				1.1101183891296387
			],
			"min":[
				-1.0720155239105225,
				-1.0927115678787231,
				-1.069014072418213
			],
			"type":"VEC3"
		},
		{
			"bufferView":11,
			"componentType":5126,
			"count":2808,
			"type":"VEC3"
		},
		{
			"bufferView":12,
			"componentType":5126,
			"count":2808,
			"type":"VEC2"
		},
		{
			"bufferView":13,
			"componentType":5126,
			"count":2808,
			"type":"VEC4"
		},
		{
			"bufferView":14,
			"componentType":5123,
			"count":3864,
			"type":"SCALAR"
		}
	],
	"bufferViews":[
		{
			"buffer":0,
			"byteLength":29088,
			"byteOffset":0,
			"target":34962
		},
		{
			"buffer":0,
			"byteLength":29088,
			"byteOffset":29088,
			"target":34962
		},
		{
			"buffer":0,
			"byteLength":19392,
			"byteOffset":58176,
			"target":34962
		},
		{
			"buffer":0,
			"byteLength":38784,
			"byteOffset":77568,
			"target":34962
		},
		{
			"buffer":0,
			"byteLength":6672,
			"byteOffset":116352,
			"target":34963
		},
		{
			"buffer":0,
			"byteLength":33696,
			"byteOffset":123024,
			"target":34962
		},
		{
			"buffer":0,
			"byteLength":33696,
			"byteOffset":156720,
			"target":34962
		},
		{
			"buffer":0,
			"byteLength":22464,
			"byteOffset":190416,
			"target":34962
		},
		{
			"buffer":0,
			"byteLength":44928,
			"byteOffset":212880,
			"target":34962
		},
		{
			"buffer":0,
			"byteLength":7728,
			"byteOffset":257808,
			"target":34963
		},
		{
			"buffer":0,
			"byteLength":33696,
			"byteOffset":265536,
			"target":34962
		},
		{
			"buffer":0,
			"byteLength":33696,
			"byteOffset":299232,
			"target":34962
		},
		{
			"buffer":0,
			"byteLength":22464,
			"byteOffset":332928,
			"target":34962
		},
		{
			"buffer":0,
			"byteLength":44928,
			"byteOffset":355392,
			"target":34962
		},
		{
			"buffer":0,
			"byteLength":7728,
			"byteOffset":400320,
			"target":34963
		}
	],
	"buffers":[
		{
			"byteLength":408048,
			"uri":"Crate-2a6cbea5586511c49671e168879a393b.bin"
		}
	]
}
