{
	"asset":{
		"generator":"Khronos glTF Blender I/O v4.3.47",
		"version":"2.0"
	},
	"scene":0,
	"scenes":[
		{
			"extras":{
				"geocables_message":"\\\\nCustom Link:",
				"geocables_link":""
			},
			"name":"Scene",
			"nodes":[
				0
			]
		}
	],
	"nodes":[
		{
			"mesh":0,
			"name":"Plane.020",
			"rotation":[
				0.5000000596046448,
				-0.4999999403953552,
				-0.5,
				0.5000000596046448
			]
		}
	],
	"materials":[
		{
			"alphaMode":"BLEND",
			"doubleSided":true,
			"name":"Door"
		}
	],
	"meshes":[
		{
			"name":"Plane.038",
			"primitives":[
				{
					"attributes":{
						"POSITION":0,
						"NORMAL":1,
						"TEXCOORD_0":2
					},
					"indices":3,
					"material":0
				}
			]
		}
	],
	"accessors":[
		{
			"bufferView":0,
			"componentType":5126,
			"count":2883,
			"max":[
				0.18343621492385864,
				1.1368825435638428,
				1.2686400413513184
			],
			"min":[
				-0.18164175748825073,
				-1.8931185007095337,
				-1.946635365486145
			],
			"type":"VEC3"
		},
		{
			"bufferView":1,
			"componentType":5126,
			"count":2883,
			"type":"VEC3"
		},
		{
			"bufferView":2,
			"componentType":5126,
			"count":2883,
			"type":"VEC2"
		},
		{
			"bufferView":3,
			"componentType":5123,
			"count":12024,
			"type":"SCALAR"
		}
	],
	"bufferViews":[
		{
			"buffer":0,
			"byteLength":34596,
			"byteOffset":0,
			"target":34962
		},
		{
			"buffer":0,
			"byteLength":34596,
			"byteOffset":34596,
			"target":34962
		},
		{
			"buffer":0,
			"byteLength":23064,
			"byteOffset":69192,
			"target":34962
		},
		{
			"buffer":0,
			"byteLength":24048,
			"byteOffset":92256,
			"target":34963
		}
	],
	"buffers":[
		{
			"byteLength":116304,
			"uri":"Door-05b28933b969015373fa5427ccff41e4.bin"
		}
	]
}
