{
	"asset":{
		"generator":"Khronos glTF Blender I/O v4.3.47",
		"version":"2.0"
	},
	"scene":0,
	"scenes":[
		{
			"extras":{
				"geocables_message":"\\\\nCustom Link:",
				"geocables_link":""
			},
			"name":"Scene",
			"nodes":[
				0
			]
		}
	],
	"nodes":[
		{
			"mesh":0,
			"name":"Treasure_Chest"
		}
	],
	"materials":[
		{
			"doubleSided":true,
			"name":"Treasure_Chest"
		}
	],
	"meshes":[
		{
			"name":"Cube.023",
			"primitives":[
				{
					"attributes":{
						"POSITION":0,
						"NORMAL":1,
						"TEXCOORD_0":2
					},
					"indices":3,
					"material":0
				}
			]
		}
	],
	"accessors":[
		{
			"bufferView":0,
			"componentType":5126,
			"count":2760,
			"max":[
				1.0400794744491577,
				0.9168209433555603,
				1.131341814994812
			],
			"min":[
				-1.2357709407806396,
				-1.0201406478881836,
				-1.131385326385498
			],
			"type":"VEC3"
		},
		{
			"bufferView":1,
			"componentType":5126,
			"count":2760,
			"type":"VEC3"
		},
		{
			"bufferView":2,
			"componentType":5126,
			"count":2760,
			"type":"VEC2"
		},
		{
			"bufferView":3,
			"componentType":5123,
			"count":6696,
			"type":"SCALAR"
		}
	],
	"bufferViews":[
		{
			"buffer":0,
			"byteLength":33120,
			"byteOffset":0,
			"target":34962
		},
		{
			"buffer":0,
			"byteLength":33120,
			"byteOffset":33120,
			"target":34962
		},
		{
			"buffer":0,
			"byteLength":22080,
			"byteOffset":66240,
			"target":34962
		},
		{
			"buffer":0,
			"byteLength":13392,
			"byteOffset":88320,
			"target":34963
		}
	],
	"buffers":[
		{
			"byteLength":101712,
			"uri":"Treasure_Chest-43ede4de611cfe4159d8f936e889d3a1.bin"
		}
	]
}
