{
	"asset":{
		"generator":"Khronos glTF Blender I/O v4.3.47",
		"version":"2.0"
	},
	"scene":0,
	"scenes":[
		{
			"extras":{
				"geocables_message":"\\\\nCustom Link:",
				"geocables_link":"",
				"td":{
					"density_set":"5.12",
					"uv_space":"24.1831 %",
					"density":"5.120"
				}
			},
			"name":"Scene",
			"nodes":[
				0,
				1
			]
		}
	],
	"nodes":[
		{
			"mesh":0,
			"name":"Wall_Torch",
			"rotation":[
				0.7071068286895752,
				0,
				0,
				0.7071068286895752
			],
			"translation":[
				0,
				-0.8152914047241211,
				-1.662498950958252
			]
		},
		{
			"mesh":1,
			"name":"Standing_Torch",
			"translation":[
				0,
				-0.5669024586677551,
				1.324066400527954
			]
		}
	],
	"materials":[
		{
			"doubleSided":true,
			"name":"Wall_Torch"
		},
		{
			"doubleSided":true,
			"name":"Standing_Torch"
		}
	],
	"meshes":[
		{
			"name":"Plane",
			"primitives":[
				{
					"attributes":{
						"POSITION":0,
						"NORMAL":1,
						"TEXCOORD_0":2
					},
					"indices":3,
					"material":0
				}
			]
		},
		{
			"name":"Circle.028",
			"primitives":[
				{
					"attributes":{
						"POSITION":4,
						"NORMAL":5,
						"TEXCOORD_0":6
					},
					"indices":7,
					"material":1
				}
			]
		}
	],
	"accessors":[
		{
			"bufferView":0,
			"componentType":5126,
			"count":7642,
			"max":[
				0.07808870822191238,
				0.35459598898887634,
				0.2432563602924347
			],
			"min":[
				-0.07808876782655716,
				0,
				-0.5033808350563049
			],
			"type":"VEC3"
		},
		{
			"bufferView":1,
			"componentType":5126,
			"count":7642,
			"type":"VEC3"
		},
		{
			"bufferView":2,
			"componentType":5126,
			"count":7642,
			"type":"VEC2"
		},
		{
			"bufferView":3,
			"componentType":5123,
			"count":14040,
			"type":"SCALAR"
		},
		{
			"bufferView":4,
			"componentType":5126,
			"count":5884,
			"max":[
				0.09782809019088745,
				0.24287571012973785,
				0.0978286862373352
			],
			"min":[
				-0.09782801568508148,
				-1.1330921649932861,
				-0.09782739728689194
			],
			"type":"VEC3"
		},
		{
			"bufferView":5,
			"componentType":5126,
			"count":5884,
			"type":"VEC3"
		},
		{
			"bufferView":6,
			"componentType":5126,
			"count":5884,
			"type":"VEC2"
		},
		{
			"bufferView":7,
			"componentType":5123,
			"count":16038,
			"type":"SCALAR"
		}
	],
	"bufferViews":[
		{
			"buffer":0,
			"byteLength":91704,
			"byteOffset":0,
			"target":34962
		},
		{
			"buffer":0,
			"byteLength":91704,
			"byteOffset":91704,
			"target":34962
		},
		{
			"buffer":0,
			"byteLength":61136,
			"byteOffset":183408,
			"target":34962
		},
		{
			"buffer":0,
			"byteLength":28080,
			"byteOffset":244544,
			"target":34963
		},
		{
			"buffer":0,
			"byteLength":70608,
			"byteOffset":272624,
			"target":34962
		},
		{
			"buffer":0,
			"byteLength":70608,
			"byteOffset":343232,
			"target":34962
		},
		{
			"buffer":0,
			"byteLength":47072,
			"byteOffset":413840,
			"target":34962
		},
		{
			"buffer":0,
			"byteLength":32076,
			"byteOffset":460912,
			"target":34963
		}
	],
	"buffers":[
		{
			"byteLength":492988,
			"uri":"Wall_Torch-92c821c8ebf4c546de988d5b0eb234e3.bin"
		}
	]
}
